<?xml version='1.0' encoding='iso-8859-1'?>
<!DOCTYPE svg PUBLIC '-//W3C//DTD SVG 1.1//EN' 'http://www.w3.org/Graphics/SVG/1.1/DTD/svg11.dtd'>
<svg version="1.1" xmlns="http://www.w3.org/2000/svg" viewBox="0 0 316.484 316.484" xmlns:xlink="http://www.w3.org/1999/xlink" enable-background="new 0 0 316.484 316.484">
  <g>
    <path fill="#ffffff" d="m250.813,34.742h-68.949v-27.742c0-3.866-3.134-7-7-7h-33.242c-3.866,0-7,3.134-7,7v27.742h-68.95c-16.582,0-30.073,13.491-30.073,30.073v93.356c0,16.583 13.491,30.073 30.073,30.073h68.949v121.239c0,3.866 3.134,7 7,7h33.242c3.866,0 7-3.134 7-7v-121.238h68.949c16.582,0 30.073-13.491 30.073-30.073v-93.357c0.001-16.582-13.49-30.073-30.072-30.073zm16.073,123.43c0,8.863-7.21,16.073-16.073,16.073h-185.141c-8.863,0-16.073-7.21-16.073-16.073v-93.357c0-8.863 7.21-16.073 16.073-16.073h185.141c8.863,0 16.073,7.21 16.073,16.073v93.357zm-118.265-144.172h19.242v20.742h-19.242v-20.742zm19.242,288.484h-19.242v-114.239h19.242v114.239z"/>
    <path fill="#ffffff" d="m62.562,54.182c-1.84,0-3.649,0.75-4.949,2.05-1.311,1.3-2.051,3.11-2.051,4.95s0.74,3.64 2.051,4.95c1.3,1.3 3.109,2.05 4.949,2.05 1.841,0 3.641-0.75 4.95-2.05 1.3-1.31 2.05-3.11 2.05-4.95s-0.75-3.65-2.05-4.95c-1.31-1.3-3.11-2.05-4.95-2.05z"/>
    <path fill="#ffffff" d="m253.922,54.182c-1.84,0-3.65,0.75-4.95,2.05-1.3,1.3-2.05,3.11-2.05,4.95s0.75,3.65 2.05,4.95c1.311,1.3 3.11,2.05 4.95,2.05 1.85,0 3.65-0.75 4.95-2.05 1.31-1.31 2.05-3.11 2.05-4.95s-0.74-3.65-2.05-4.95c-1.3-1.3-3.101-2.05-4.95-2.05z"/>
    <path fill="#ffffff" d="m93.571,81.923h-15.155c-3.866,0-7,3.134-7,7v51.141c0,3.866 3.134,7 7,7s7-3.134 7-7v-9.16l13.534,14.021c1.373,1.423 3.204,2.139 5.037,2.139 1.75,0 3.502-0.652 4.86-1.963 2.781-2.685 2.86-7.117 0.175-9.898l-13.365-13.846c8.621-1.036 15.329-8.382 15.329-17.277v-4.742c-1.42109e-14-9.603-7.812-17.415-17.415-17.415zm3.415,22.156c0,1.883-1.532,3.415-3.415,3.415h-8.155v-11.57h8.155c1.883,0 3.415,1.532 3.415,3.414v4.741z"/>
    <path fill="#ffffff" d="m132.586,95.923h17.428c3.866,0 7-3.134 7-7s-3.134-7-7-7h-17.428c-8.35,0-15.143,6.792-15.143,15.142v34.856c0,8.35 6.793,15.143 15.143,15.143h17.428c3.866,0 7-3.134 7-7s-3.134-7-7-7h-17.428c-0.63,0-1.143-0.513-1.143-1.143v-10.428h18.57c3.866,0 7-3.134 7-7s-3.134-7-7-7h-18.57v-10.428c0-0.629 0.513-1.142 1.143-1.142z"/>
    <path fill="#ffffff" d="m242.068,81.923h-25.57c-3.866,0-7,3.134-7,7s3.134,7 7,7h5.785v44.141c0,3.866 3.134,7 7,7s7-3.134 7-7v-44.141h5.785c3.866,0 7-3.134 7-7s-3.133-7-7-7z"/>
    <path fill="#ffffff" d="m196.041,81.923c-3.866,0-7,3.134-7,7v21.488l-12.31-24.619c-1.452-2.904-4.711-4.429-7.869-3.682-3.159,0.746-5.392,3.566-5.392,6.813v51.141c0,3.866 3.134,7 7,7s7-3.134 7-7v-21.488l12.31,24.619c1.205,2.411 3.654,3.87 6.259,3.87 0.533,0 1.073-0.061 1.61-0.188 3.159-0.746 5.392-3.566 5.392-6.813v-51.141c0-3.866-3.134-7-7-7z"/>
  </g>
</svg>
