<?xml version="1.0" encoding="iso-8859-1"?>
<!-- Generator: Adobe Illustrator 19.0.0, SVG Export Plug-In . SVG Version: 6.00 Build 0)  -->
<svg fill="#000" version="1.1" id="Layer_1" xmlns="http://www.w3.org/2000/svg" xmlns:xlink="http://www.w3.org/1999/xlink" x="0px" y="0px"
	 viewBox="0 0 318.75 318.75" style="enable-background:new 0 0 318.75 318.75;" xml:space="preserve">
<g>
	<path d="M159.375,150c41.355,0,75-33.645,75-75s-33.645-75-75-75s-75,33.645-75,75S118.02,150,159.375,150z M159.375,30
		c24.813,0,45,20.187,45,45s-20.187,45-45,45s-45-20.187-45-45S134.562,30,159.375,30z"/>
	<path d="M159.375,180c-68.236,0-123.75,55.514-123.75,123.75v15h247.5v-15C283.125,235.514,227.611,180,159.375,180z
		 M66.824,288.75c7.202-44.588,45.962-78.75,92.551-78.75s85.35,34.162,92.551,78.75H66.824z"/>
</g>
<g>
</g>
<g>
</g>
<g>
</g>
<g>
</g>
<g>
</g>
<g>
</g>
<g>
</g>
<g>
</g>
<g>
</g>
<g>
</g>
<g>
</g>
<g>
</g>
<g>
</g>
<g>
</g>
<g>
</g>
</svg>
