<?xml version='1.0' encoding='iso-8859-1'?>
<!DOCTYPE svg PUBLIC '-//W3C//DTD SVG 1.1//EN' 'http://www.w3.org/Graphics/SVG/1.1/DTD/svg11.dtd'>
<svg version="1.1" xmlns="http://www.w3.org/2000/svg" viewBox="0 0 268.987 268.987" xmlns:xlink="http://www.w3.org/1999/xlink" enable-background="new 0 0 268.987 268.987">
  <g>
    <path fill="#001730" d="m243.683,12.444h-218.378c-13.953,0-25.305,11.351-25.305,25.305v147.829c0,13.953 11.352,25.305 25.305,25.305h83.135l-4.472,31.661h-20.974c-3.866,0-7,3.134-7,7s3.134,7 7,7h27.055 48.891 27.055c3.866,0 7-3.134 7-7s-3.134-7-7-7h-20.975l-4.472-31.661h83.135c13.953,0 25.305-11.352 25.305-25.305v-147.829c-0.001-13.954-11.352-25.305-25.305-25.305zm-218.378,14h218.378c6.233,0 11.305,5.071 11.305,11.305v129.386h-240.988v-129.386c0-6.234 5.071-11.305 11.305-11.305zm125.576,216.099h-32.774l4.472-31.661h23.831l4.471,31.661zm92.802-45.661h-218.378c-6.233,0-11.305-5.071-11.305-11.305v-4.443h240.987v4.443c0,6.234-5.071,11.305-11.304,11.305z"/>
    <path fill="#001730" d="m101.838,138.038h65.311c3.866,0 7-3.134 7-7v-41.46c0-2.197-1.031-4.266-2.785-5.589l-32.655-24.625c-2.495-1.882-5.935-1.882-8.43,0l-32.655,24.625c-1.754,1.323-2.785,3.392-2.785,5.589v41.46c-0.001,3.866 3.133,7 6.999,7zm7-44.972l25.655-19.347 25.655,19.347v30.971h-18.188v-14.671c0-1.414-1.146-2.56-2.56-2.56h-9.814c-1.414,0-2.56,1.146-2.56,2.56v14.671h-18.188v-30.971z"/>
  </g>
</svg>
