<svg height="512pt" viewBox="0 0 512 512" width="512pt" xmlns="http://www.w3.org/2000/svg"><path fill="#001730" d="m256 0c-141.484375 0-256 114.496094-256 256 0 141.484375 114.496094 256 256 256 141.484375 0 256-114.496094 256-256 0-141.484375-114.496094-256-256-256zm215.078125 236h-115.359375c-.738281-26.820312-2.964844-52.804688-6.5625-77.136719 25.828125-10.082031 49.976562-24.398437 71.558594-42.601562 28.878906 33.929687 46.320312 75.425781 50.363281 119.738281zm-79.105469-147.851562c-15.445312 12.554687-32.375 22.792968-50.359375 30.558593-5.417969-23.390625-13.296875-48.730469-24.355469-69.929687 27.132813 7.980468 52.464844 21.277344 74.714844 39.371094zm-135.972656-48.011719c22.515625 0 42.207031 67.558593 47.433594 90.960937-15.402344 3.4375-31.285156 5.207032-47.433594 5.207032s-32.03125-1.769532-47.433594-5.207032c5.011719-22.4375 24.746094-90.960937 47.433594-90.960937zm-164.714844 76.128906c21.585938 18.199219 45.730469 32.515625 71.5625 42.601563-3.597656 24.328124-5.824218 50.3125-6.566406 77.132812h-115.359375c4.042969-44.3125 21.484375-85.808594 50.363281-119.734375zm-50.363281 159.734375h115.359375c.742188 26.820312 2.96875 52.804688 6.566406 77.136719-25.832031 10.082031-49.976562 24.398437-71.5625 42.601562-28.878906-33.929687-46.320312-75.425781-50.363281-119.738281zm79.105469 147.851562c15.445312-12.554687 32.375-22.792968 50.359375-30.558593 5.417969 23.390625 13.296875 48.730469 24.355469 69.929687-27.132813-7.980468-52.464844-21.277344-74.714844-39.371094zm50.359375-305.144531c-17.980469-7.765625-34.914063-18.003906-50.359375-30.558593 22.25-18.09375 47.582031-31.390626 74.714844-39.371094-11.058594 21.203125-18.9375 46.539062-24.355469 69.929687zm85.613281 353.15625c-22.515625 0-42.207031-67.558593-47.433594-90.960937 15.402344-3.4375 31.285156-5.207032 47.433594-5.207032s32.03125 1.769532 47.433594 5.207032c-5.011719 22.4375-24.746094 90.960937-47.433594 90.960937zm54.433594-130.378906c-17.695313-3.816406-35.917969-5.789063-54.433594-5.789063s-36.738281 1.972657-54.433594 5.789063c-2.828125-20.710937-4.613281-42.730469-5.269531-65.484375h119.410156c-.660156 22.753906-2.445312 44.773438-5.273437 65.484375zm-114.140625-105.484375c.660156-22.753906 2.445312-44.773438 5.269531-65.484375 17.699219 3.816406 35.917969 5.789063 54.4375 5.789063 18.515625 0 36.738281-1.972657 54.433594-5.789063 2.828125 20.710937 4.609375 42.730469 5.269531 65.484375zm120.964843 227.222656c11.058594-21.199218 18.9375-46.539062 24.359376-69.929687 17.980468 7.765625 34.914062 18.003906 50.355468 30.558593-22.25 18.09375-47.582031 31.390626-74.714844 39.371094zm103.457032-67.488281c-21.585938-18.199219-45.730469-32.515625-71.5625-42.601563 3.597656-24.328124 5.824218-50.3125 6.566406-77.132812h115.359375c-4.042969 44.3125-21.484375 85.808594-50.363281 119.734375zm0 0"/></svg>
