<svg height="511pt" viewBox="1 -23 511.99875 511" width="511pt" xmlns="http://www.w3.org/2000/svg">
    <path fill="#FE4A49"
        d="m478.105469 354.105469c-29.214844-29.214844-76.773438-29.238281-106.011719-.058594l-6.582031 6.578125c-8.59375 8.59375-20.015625 13.324219-32.167969 13.324219-12.148438 0-23.570312-4.730469-32.164062-13.324219-3.746094-3.742188-6.777344-8.101562-9.003907-12.835938l137.820313-137.824218c2.296875-2.292969 3.785156-5.273438 4.246094-8.484375l6.371093-44.621094 53.839844-53.839844c11.316406-11.3125 17.546875-26.355469 17.546875-42.355469 0-15.996093-6.230469-31.039062-17.546875-42.355468-23.355469-23.351563-61.355469-23.351563-84.707031 0l-18.523438 18.523437-31.9375-31.9375c-3.332031-3.332031-8.027344-4.9023435-12.691406-4.25l-99.234375 13.90625c-3.230469.453125-6.222656 1.945313-8.527344 4.25l-222.746093 222.75c-21.449219 21.445313-21.449219 56.339844 0 77.785157l113.375 113.378906c10.722656 10.722656 24.808593 16.085937 38.894531 16.085937 14.085937 0 28.171875-5.363281 38.894531-16.085937l62.925781-62.929688c2.832031 4.324219 6.105469 8.371094 9.789063 12.054688 14.257812 14.257812 33.21875 22.113281 53.382812 22.113281 20.164063 0 39.121094-7.855469 53.378906-22.113281l6.554688-6.550782c17.546875-17.515624 46.082031-17.5 63.605469.023438l.371093.371094c17.523438 17.523437 17.542969 46.058594.03125 63.609375l-.144531.144531c-5.847656 5.867188-5.832031 15.363281.039063 21.214844 2.925781 2.917968 6.757812 4.375 10.585937 4.375 3.847657 0 7.695313-1.472656 10.625-4.410156l.140625-.144532c29.171875-29.242187 29.144532-76.796875-.054687-105.996094zm-47.144531-314.582031c11.65625-11.65625 30.625-11.65625 42.28125 0 5.644531 5.648437 8.757812 13.15625 8.757812 21.140624 0 7.988282-3.113281 15.496094-8.757812 21.140626l-25.554688 25.554687.695312-4.878906c.667969-4.675781-.902343-9.390625-4.242187-12.730469l-31.703125-31.703125zm-244.925782 371.976562c-9.75 9.75-25.609375 9.75-35.359375 0l-113.378906-113.378906c-4.71875-4.71875-7.320313-11-7.320313-17.675782 0-6.679687 2.601563-12.957031 7.320313-17.679687l219.199219-219.199219 86.859375-12.171875 26.652343 26.652344-27.898437 27.902344c-5.859375 5.855469-5.859375 15.355469 0 21.210937 2.929687 2.929688 6.769531 4.394532 10.605469 4.394532 3.839844 0 7.679687-1.464844 10.605468-4.394532l27.902344-27.898437 26.398438 26.398437-12.371094 86.625zm0 0"/>
    <path fill="#FE4A49"
        d="m286.335938 149.050781c-3.460938-.351562-85.238282-8.128906-125.25 31.886719-33.109376 33.105469-23.519532 82.289062-17.429688 102.992188l-25.101562 25.101562c-5.859376 5.859375-5.859376 15.355469 0 21.214844 2.929687 2.929687 6.769531 4.394531 10.605468 4.394531 3.839844 0 7.679688-1.464844 10.609375-4.394531l25.101563-25.101563c9.246094 2.71875 24.171875 6.136719 40.8125 6.136719 20.617187 0 43.859375-5.246094 62.179687-23.566406 40.015625-40.011719 32.234375-121.789063 31.886719-125.25-.71875-7.089844-6.324219-12.695313-13.414062-13.414063zm-39.683594 117.449219c-15.773438 15.769531-39.195313 16.183594-56.667969 13.53125l45.21875-45.21875c5.859375-5.859375 5.859375-15.359375 0-21.214844-5.855469-5.859375-15.355469-5.859375-21.214844 0l-45.214843 45.21875c-2.652344-17.480468-2.238282-40.898437 13.527343-56.667968 20.660157-20.660157 63.257813-24.375 88.304688-23.929688.484375 25.027344-3.214844 67.542969-23.953125 88.28125zm0 0"/>
</svg>
