<?xml version="1.0" encoding="iso-8859-1"?>
<!-- Generator: Adobe Illustrator 17.1.0, SVG Export Plug-In . SVG Version: 6.00 Build 0)  -->
<!DOCTYPE svg PUBLIC "-//W3C//DTD SVG 1.1//EN" "http://www.w3.org/Graphics/SVG/1.1/DTD/svg11.dtd">
<svg version="1.1" id="Capa_1" xmlns="http://www.w3.org/2000/svg" xmlns:xlink="http://www.w3.org/1999/xlink" x="0px" y="0px"
	 viewBox="0 0 321.705 321.705" style="enable-background:new 0 0 321.705 321.705;" xml:space="preserve">
<path fill="#001730" id="XMLID_440_" d="M160.851,0C72.158,0,0.001,72.158,0.001,160.853s72.157,160.853,160.85,160.853
	c22.61,0,44.48-4.602,65.003-13.677c5.556-2.457,8.068-8.953,5.611-14.51c-2.458-5.557-8.956-8.066-14.51-5.611
	c-17.701,7.828-36.578,11.798-56.104,11.798c-76.562,0-138.85-62.289-138.85-138.853S84.289,22,160.851,22
	c76.564,0,138.854,62.289,138.854,138.853c0,14.509-2.227,28.803-6.616,42.484c-9.456,29.458-24.992,38.548-32.553,37.372
	c-7.251-1.136-7.814-11.979-7.814-15.275V94.789c0-6.075-4.925-11-11-11s-11,4.925-11,11v6.473
	c-16.863-19.746-41.929-32.281-69.87-32.281c-50.658,0-91.872,41.214-91.872,91.872s41.214,91.872,91.872,91.872
	c27.941,0,53.007-12.535,69.87-32.281v4.99c0,19.971,10.367,34.498,26.412,37.011c18.988,2.966,43.962-12.067,56.902-52.385
	c5.089-15.857,7.669-32.413,7.669-49.207C321.704,72.158,249.546,0,160.851,0z M160.851,230.725
	c-38.527,0-69.872-31.345-69.872-69.872s31.345-69.872,69.872-69.872c38.526,0,69.87,31.345,69.87,69.872
	S199.377,230.725,160.851,230.725z"/>
<g>
</g>
<g>
</g>
<g>
</g>
<g>
</g>
<g>
</g>
<g>
</g>
<g>
</g>
<g>
</g>
<g>
</g>
<g>
</g>
<g>
</g>
<g>
</g>
<g>
</g>
<g>
</g>
<g>
</g>
</svg>
