<?xml version='1.0' encoding='iso-8859-1'?>
<!DOCTYPE svg PUBLIC '-//W3C//DTD SVG 1.1//EN' 'http://www.w3.org/Graphics/SVG/1.1/DTD/svg11.dtd'>
<svg version="1.1" xmlns="http://www.w3.org/2000/svg" viewBox="0 0 245.287 245.287" xmlns:xlink="http://www.w3.org/1999/xlink" enable-background="new 0 0 245.287 245.287">
  <g>
    <path fill="#ffffff" d="m54.027,147.389c-3.866,0-7,3.134-7,7v12.151c0,3.866 3.134,7 7,7s7-3.134 7-7v-12.151c0-3.866-3.133-7-7-7z"/>
    <path fill="#ffffff" d="m82.028,147.389c-3.866,0-7,3.134-7,7v12.151c0,3.866 3.134,7 7,7s7-3.134 7-7v-12.151c0-3.866-3.133-7-7-7z"/>
    <path fill="#ffffff" d="m110.03,147.389c-3.866,0-7,3.134-7,7v12.151c0,3.866 3.134,7 7,7s7-3.134 7-7v-12.151c0-3.866-3.134-7-7-7z"/>
    <path fill="#ffffff" d="m135.257,147.389c-3.866,0-7,3.134-7,7v12.151c0,3.866 3.134,7 7,7s7-3.134 7-7v-12.151c0-3.866-3.134-7-7-7z"/>
    <path fill="#ffffff" d="m163.259,147.389c-3.866,0-7,3.134-7,7v12.151c0,3.866 3.134,7 7,7s7-3.134 7-7v-12.151c0-3.866-3.134-7-7-7z"/>
    <path fill="#ffffff" d="m191.26,147.389c-3.866,0-7,3.134-7,7v12.151c0,3.866 3.134,7 7,7s7-3.134 7-7v-12.151c0-3.866-3.134-7-7-7z"/>
    <path fill="#ffffff" d="m54.027,108.314c-3.866,0-7,3.134-7,7v12.151c0,3.866 3.134,7 7,7s7-3.134 7-7v-12.151c0-3.866-3.133-7-7-7z"/>
    <path fill="#ffffff" d="m82.028,108.314c-3.866,0-7,3.134-7,7v12.151c0,3.866 3.134,7 7,7s7-3.134 7-7v-12.151c0-3.866-3.133-7-7-7z"/>
    <path fill="#ffffff" d="m110.03,108.314c-3.866,0-7,3.134-7,7v12.151c0,3.866 3.134,7 7,7s7-3.134 7-7v-12.151c0-3.866-3.134-7-7-7z"/>
    <path fill="#ffffff" d="m135.257,108.314c-3.866,0-7,3.134-7,7v12.151c0,3.866 3.134,7 7,7s7-3.134 7-7v-12.151c0-3.866-3.134-7-7-7z"/>
    <path fill="#ffffff" d="m163.259,108.314c-3.866,0-7,3.134-7,7v12.151c0,3.866 3.134,7 7,7s7-3.134 7-7v-12.151c0-3.866-3.134-7-7-7z"/>
    <path fill="#ffffff" d="m191.26,108.314c-3.866,0-7,3.134-7,7v12.151c0,3.866 3.134,7 7,7s7-3.134 7-7v-12.151c0-3.866-3.134-7-7-7z"/>
    <path fill="#ffffff" d="m94.642,36.814c-3.866,0-7,3.134-7,7v12.151c0,3.866 3.134,7 7,7s7-3.134 7-7v-12.151c0-3.866-3.134-7-7-7z"/>
    <path fill="#ffffff" d="m122.644,36.814c-3.866,0-7,3.134-7,7v12.151c0,3.866 3.134,7 7,7s7-3.134 7-7v-12.151c0-3.866-3.134-7-7-7z"/>
    <path fill="#ffffff" d="m150.646,36.814c-3.866,0-7,3.134-7,7v12.151c0,3.866 3.134,7 7,7s7-3.134 7-7v-12.151c0-3.866-3.134-7-7-7z"/>
    <path fill="#ffffff" d="m238.287,74.278h-51.836v-60.169c0-3.866-3.134-7-7-7h-113.615c-3.866,0-7,3.134-7,7v60.168h-51.836c-3.866,0-7,3.134-7,7s3.134,7 7,7h6.581v142.9c0,3.866 3.134,7 7,7h204.125c3.866,0 7-3.134 7-7v-142.9h6.581c3.866,0 7-3.134 7-7s-3.134-6.999-7-6.999zm-81.149,149.9h-27.542c0.029-0.26 0.048-0.524 0.048-0.792v-10.518h27.494v11.31zm-41.447,0h-27.542v-11.31h27.494v10.518c0.001,0.268 0.019,0.531 0.048,0.792zm55.447,0v-18.31c0-3.866-3.134-7-7-7h-82.989c-3.866,0-7,3.134-7,7v18.31h-46.568v-135.9h190.125v135.9h-46.568zm-98.302-203.069h99.615v53.168h-99.615v-53.168z"/>
  </g>
</svg>
