<?xml version="1.0" encoding="iso-8859-1"?>
<!-- Generator: Adobe Illustrator 19.0.0, SVG Export Plug-In . SVG Version: 6.00 Build 0)  -->
<svg version="1.1" id="Capa_1" xmlns="http://www.w3.org/2000/svg" xmlns:xlink="http://www.w3.org/1999/xlink" x="0px" y="0px"
	 viewBox="0 0 512 512" style="enable-background:new 0 0 512 512;" xml:space="preserve">
<g>
	<g>
		<path fill="#001730" d="M256,0C169.154,0,98.5,70.654,98.5,157.5c0,50.024,15.005,98.121,43.393,139.091
			c22.13,31.938,51.128,57.849,84.866,76.069c-1.392,1.362-2.259,3.259-2.259,5.36c0,3.696,2.675,6.759,6.193,7.379
			c-8.272,7.841-14.595,17.674-18.288,28.783c-2.316,6.968-1.184,14.374,3.106,20.322c4.277,5.929,10.924,9.329,18.236,9.329H248.5
			V504.5c0,4.143,3.358,7.5,7.5,7.5c4.142,0,7.5-3.357,7.5-7.5v-60.666h14.753c7.313,0,13.959-3.4,18.236-9.329
			c4.29-5.948,5.423-13.354,3.106-20.322c-1.356-4.079-3.103-8.057-5.189-11.822c-2.009-3.622-6.572-4.935-10.196-2.923
			c-3.622,2.009-4.931,6.573-2.923,10.196c1.639,2.956,3.01,6.079,4.074,9.281c0.777,2.339,0.399,4.822-1.037,6.813
			c-1.424,1.974-3.637,3.105-6.071,3.105h-44.506c-2.435,0-4.647-1.132-6.07-3.105c-1.437-1.991-1.815-4.475-1.038-6.813
			c5.024-15.112,16.248-27.205,30.887-33.395h22.476c4.142,0,7.5-3.357,7.5-7.5c0-2.102-0.867-3.999-2.259-5.36
			c33.738-18.22,62.736-44.131,84.865-76.069c28.388-40.97,43.393-89.066,43.393-139.091C413.5,70.654,342.846,0,256,0z
			 M256,369.937C169.33,334.453,113.5,251.393,113.5,157.5C113.5,78.925,177.424,15,256,15s142.5,63.925,142.5,142.5
			C398.5,251.394,342.67,334.453,256,369.937z"/>
	</g>
</g>
<g>
</g>
<g>
</g>
<g>
</g>
<g>
</g>
<g>
</g>
<g>
</g>
<g>
</g>
<g>
</g>
<g>
</g>
<g>
</g>
<g>
</g>
<g>
</g>
<g>
</g>
<g>
</g>
<g>
</g>
</svg>
