<?xml version="1.0" encoding="iso-8859-1"?>
<!-- Generator: Adobe Illustrator 19.1.0, SVG Export Plug-In . SVG Version: 6.00 Build 0)  -->
<svg version="1.1" id="Capa_1" xmlns="http://www.w3.org/2000/svg" xmlns:xlink="http://www.w3.org/1999/xlink" x="0px" y="0px"
	 viewBox="0 0 529.578 529.578" style="enable-background:new 0 0 529.578 529.578;" xml:space="preserve">
<g>
	<g>
		<path fill="#ffffff" d="M266.032,529.578c146.691,0,263.546-119.342,263.546-263.546S410.237,0,266.032,0S0,119.342,0,266.032
			S119.342,529.578,266.032,529.578z M266.032,24.863c131.773,0,238.683,106.91,238.683,238.683s-106.91,238.683-238.683,238.683
			S27.349,395.319,27.349,263.546S134.259,24.863,266.032,24.863z"/>
		<path fill="#ffffff" d="M261.06,348.08c2.486,2.486,4.973,2.486,7.459,2.486s4.973,0,7.459-2.486L407.75,228.738
			c4.973-4.973,4.973-12.431,0-17.404c-4.973-4.973-12.431-4.973-17.404,0L266.032,323.217L141.718,211.334
			c-4.973-4.973-12.431-4.973-17.404,0c-4.973,4.973-4.973,12.431,0,17.404L261.06,348.08z"/>
	</g>
</g>
<g>
</g>
<g>
</g>
<g>
</g>
<g>
</g>
<g>
</g>
<g>
</g>
<g>
</g>
<g>
</g>
<g>
</g>
<g>
</g>
<g>
</g>
<g>
</g>
<g>
</g>
<g>
</g>
<g>
</g>
</svg>
