<?xml version='1.0' encoding='iso-8859-1'?>
<!DOCTYPE svg PUBLIC '-//W3C//DTD SVG 1.1//EN' 'http://www.w3.org/Graphics/SVG/1.1/DTD/svg11.dtd'>
<svg version="1.1" xmlns="http://www.w3.org/2000/svg" viewBox="0 0 238.099 238.099" xmlns:xlink="http://www.w3.org/1999/xlink" enable-background="new 0 0 238.099 238.099">
  <g>
    <path fill="#001730" d="m93.863,85.653l17.996,15.377 19.33,47.891c0.782,1.938 2.39,3.425 4.383,4.055l93.418,29.501c0.693,0.219 1.403,0.325 2.107,0.325 1.829,0 3.618-0.717 4.951-2.05 1.846-1.847 2.512-4.567 1.725-7.058l-29.501-93.418c-0.63-1.996-2.12-3.605-4.062-4.386l-47.736-19.208-15.501-18.14c-1.268-1.484-3.098-2.371-5.048-2.447-1.941-0.071-3.844,0.665-5.224,2.045l-37.24,37.242c-1.38,1.38-2.121,3.273-2.045,5.224 0.077,1.95 0.964,3.779 2.447,5.047zm121.938,64.952l-47.044-47.045c-2.733-2.733-7.165-2.734-9.9,0-2.733,2.733-2.733,7.166 0,9.899l47.043,47.044-62.963-19.884-16.924-41.928 27.936-27.936 41.97,16.888 19.882,62.962zm-80.552-97.212l7.494,8.77-25.259,25.259-8.77-7.494 26.535-26.535z"/>
    <path fill="#001730" d="m231.099,188.008h-224.099c-3.866,0-7,3.134-7,7s3.134,7 7,7h224.099c3.866,0 7-3.134 7-7s-3.134-7-7-7z"/>
  </g>
</svg>
