<?xml version='1.0' encoding='iso-8859-1'?>
<!DOCTYPE svg PUBLIC '-//W3C//DTD SVG 1.1//EN' 'http://www.w3.org/Graphics/SVG/1.1/DTD/svg11.dtd'>
<svg version="1.1" xmlns="http://www.w3.org/2000/svg" viewBox="0 0 276.486 276.486" xmlns:xlink="http://www.w3.org/1999/xlink" enable-background="new 0 0 276.486 276.486">
  <g>
    <path fill="#ffffff" d="m275.843,140.815c-1.616-3.511-5.773-5.047-9.286-3.431-11.526,5.307-24.498,4.868-35.487-1 3.983-31.768-10.127-63.303-36.835-81.408-19.154-12.983-42.325-17.39-64.242-13.145l-25.068-18.903c-2.494-1.882-5.935-1.882-8.429,0l-93.71,70.666c-3.087,2.328-3.702,6.717-1.375,9.804 2.327,3.086 6.716,3.702 9.803,1.374l89.496-67.487 12.681,9.563c-3.442,1.434-6.817,3.093-10.094,4.997-2.232-0.89-4.814-0.606-6.801,0.893l-93.71,70.666c-1.754,1.322-2.786,3.391-2.786,5.588v118.977c0,3.866 3.134,7 7,7h187.421c3.866,0 7-3.134 7-7v-91.272c7.577-1.8 14.964-4.652 21.945-8.554 8.187,4.624 17.241,6.974 26.364,6.974 7.672,0 15.393-1.659 22.682-5.015 3.512-1.618 5.047-5.775 3.431-9.287zm-163.668,100.154h-22.928v-50.76h22.928v50.76zm14,0v-57.76c0-3.866-3.134-7-7-7h-36.928c-3.866,0-7,3.134-7,7v57.76h-61.247v-108.488l82.221-62.002c-1.044,29.128 12.877,57.167 37.458,73.83 14.454,9.798 31.191,14.714 47.956,14.714 1.929,0 3.859-0.067 5.786-0.198v82.143h-61.246zm15.36-108.247c-22.613-15.328-34.438-42.17-30.682-69.075 23.599-13.453 52.912-12.41 75.526,2.92 20.365,13.804 31.974,36.947 31.338,61.063l-61.681-41.811c-3.2-2.168-7.553-1.333-9.722,1.867-2.169,3.2-1.333,7.553 1.867,9.722l61.681,41.811c-22.166,9.521-47.963,7.308-68.327-6.497z"/>
  </g>
</svg>
