<?xml version='1.0' encoding='iso-8859-1'?>
<!DOCTYPE svg PUBLIC '-//W3C//DTD SVG 1.1//EN' 'http://www.w3.org/Graphics/SVG/1.1/DTD/svg11.dtd'>
<svg version="1.1" xmlns="http://www.w3.org/2000/svg" viewBox="0 0 255.855 255.855" xmlns:xlink="http://www.w3.org/1999/xlink" enable-background="new 0 0 255.855 255.855">
  <g>
    <path fill="#ffffff" d="m246.934,160.079c0-7.581-6.168-13.749-13.749-13.749h-22.843v-38.856c0-2.197-1.031-4.266-2.785-5.589l-93.71-70.666c-2.496-1.882-5.934-1.882-8.43,0l-93.71,70.666c-1.754,1.323-2.785,3.392-2.785,5.589v118.977c0,3.866 3.134,7 7,7h109.103v8.654c0,7.581 6.168,13.749 13.749,13.749h94.411c7.581,0 13.749-6.168 13.749-13.749v-18.343c0-2.453-0.654-4.753-1.784-6.749 1.131-1.996 1.784-4.296 1.784-6.749v-18.344c0-2.453-0.654-4.753-1.784-6.749 1.13-1.996 1.784-4.296 1.784-6.749v-18.343zm-107.91,63.934h93.909v17.841h-93.909v-17.841zm-116.102-113.049l86.71-65.387 86.71,65.387v35.367h-57.568c-7.581,0-13.749,6.167-13.749,13.749v18.344c0,2.453 0.654,4.753 1.784,6.749-1.13,1.996-1.784,4.296-1.784,6.749v18.344c0,2.453 0.654,4.753 1.784,6.749-0.436,0.77-0.799,1.585-1.082,2.438h-102.805v-108.489zm210.012,99.049h-93.909v-17.841h93.909v17.841zm0-31.841h-93.909v-17.841h93.909v17.841z"/>
    <path fill="#ffffff" d="m20.137,83.255l89.495-67.487 89.495,67.487c1.263,0.952 2.742,1.412 4.21,1.412 2.121,0 4.218-0.961 5.594-2.786 2.328-3.087 1.713-7.476-1.374-9.804l-93.71-70.666c-2.496-1.882-5.934-1.882-8.43,0l-93.71,70.666c-3.087,2.328-3.702,6.717-1.374,9.804 2.327,3.086 6.718,3.7 9.804,1.374z"/>
  </g>
</svg>
