<?xml version='1.0' encoding='iso-8859-1'?>
<!DOCTYPE svg PUBLIC '-//W3C//DTD SVG 1.1//EN' 'http://www.w3.org/Graphics/SVG/1.1/DTD/svg11.dtd'>
<svg version="1.1" xmlns="http://www.w3.org/2000/svg" viewBox="0 0 288.552 288.552" xmlns:xlink="http://www.w3.org/1999/xlink" enable-background="new 0 0 288.552 288.552">
  <g>
    <path fill="#001730" d="m287.689,164.585l-18.443-33.623c-5.206-9.491-15.164-15.386-25.988-15.386h-38.565v-57.877c0-3.866-3.134-7-7-7h-190.693c-3.866,0-7,3.134-7,7v155.628c0,3.866 3.134,7 7,7h20.872c3.021,10.122 12.41,17.524 23.501,17.524s20.48-7.402 23.501-17.524h122.818 14.904c3.021,10.122 12.41,17.524 23.501,17.524s20.48-7.402 23.501-17.524h21.953c3.866,0 7-3.134 7-7v-45.376c0.001-1.176-0.296-2.334-0.862-3.366zm-273.689-99.886h176.692v141.628h-115.818c-3.021-10.122-12.41-17.525-23.501-17.525s-20.48,7.403-23.501,17.525h-13.872v-141.628zm47.897,148.629c0,5.803-4.722,10.524-10.524,10.524s-10.524-4.721-10.524-10.524 4.722-10.525 10.524-10.525 10.524,4.722 10.524,10.525zm184.725,0c0,5.803-4.722,10.524-10.524,10.524s-10.524-4.721-10.524-10.524 4.722-10.525 10.524-10.525 10.524,4.722 10.524,10.525zm27.93-7h-14.953c-3.021-10.122-12.41-17.525-23.501-17.525s-20.48,7.403-23.501,17.525h-7.904v-76.752h38.565c5.712,0 10.966,3.111 13.713,8.12l17.581,32.05v36.582z"/>
    <path fill="#001730" d="m85.944,124.595h49.821l-9.414,9.414c-2.733,2.733-2.733,7.166 0,9.899 1.367,1.367 3.159,2.05 4.95,2.05s3.583-0.684 4.95-2.05l19.463-19.463c3.777-3.777 3.777-9.924 0-13.701l-19.463-19.463c-2.734-2.733-7.166-2.733-9.9,0-2.733,2.733-2.733,7.166 0,9.899l9.414,9.414h-49.821c-3.866,0-7,3.134-7,7s3.134,7.001 7,7.001z"/>
    <path fill="#001730" d="m68.44,179.745c1.367,1.367 3.158,2.05 4.95,2.05 1.791,0 3.583-0.684 4.949-2.05 2.734-2.733 2.734-7.166 0.001-9.899l-9.414-9.414h49.821c3.866,0 7-3.134 7-7s-3.134-7-7-7h-49.82l9.414-9.414c2.733-2.733 2.733-7.166 0-9.899-2.734-2.733-7.166-2.733-9.9,0l-19.463,19.463c-1.829,1.83-2.837,4.263-2.837,6.851 0,2.588 1.008,5.021 2.837,6.85l19.462,19.462z"/>
  </g>
</svg>
