<?xml version='1.0' encoding='iso-8859-1'?>
<!DOCTYPE svg PUBLIC '-//W3C//DTD SVG 1.1//EN' 'http://www.w3.org/Graphics/SVG/1.1/DTD/svg11.dtd'>
<svg version="1.1" xmlns="http://www.w3.org/2000/svg" viewBox="0 0 226 226" xmlns:xlink="http://www.w3.org/1999/xlink" enable-background="new 0 0 226 226">
  <g>
    <path fill="#001730" d="M210.12,39.812L115.688,0.537c-1.721-0.716-3.655-0.716-5.376,0L15.88,39.812c-2.611,1.086-4.312,3.636-4.312,6.463V219   c0,3.866,3.134,7,7,7h188.864c3.866,0,7-3.134,7-7V46.276C214.432,43.448,212.731,40.898,210.12,39.812z M200.432,212H25.568   V50.946L113,14.582l87.432,36.364V212z"/>
    <path fill="#001730" d="m76.94,95.529l-29.667,29.667c-2.734,2.734-2.734,7.166 0,9.899 1.367,1.367 3.158,2.05 4.95,2.05s3.583-0.684 4.95-2.05l29.667-29.667c5.019-5.019 12.952-5.422 18.455-0.936 11.09,9.042 27.083,8.23 37.201-1.887l24.283-24.283v7.907c0,3.866 3.134,7 7,7s7-3.134 7-7v-24.703c0-3.866-3.134-7-7-7h-24.703c-3.866,0-7,3.134-7,7s3.134,7 7,7h7.7l-24.18,24.18c-5.019,5.019-12.954,5.422-18.455,0.937-11.09-9.044-27.083-8.233-37.201,1.886z"/>
    <path fill="#001730" d="m35.256,150.711c0,3.866 3.134,7 7,7h141.487c3.866,0 7-3.134 7-7s-3.134-7-7-7h-141.487c-3.866,0-7,3.133-7,7z"/>
    <path fill="#001730" d="m183.744,164.139h-141.488c-3.866,0-7,3.134-7,7s3.134,7 7,7h141.487c3.866,0 7-3.134 7-7s-3.133-7-6.999-7z"/>
    <path fill="#001730" d="m183.744,184.567h-141.488c-3.866,0-7,3.134-7,7s3.134,7 7,7h141.487c3.866,0 7-3.134 7-7s-3.133-7-6.999-7z"/>
  </g>
</svg>
