<svg height="512pt" viewBox="0 0 512 512" width="512pt" xmlns="http://www.w3.org/2000/svg">
    <path
        fill="#FE4A49" d="m442.914062 373.546875-28.257812 28.261719 21.839844 21.839844h-95.351563l130.605469-130.605469v52.816406l39.964844 39.964844v-329.9375c0-30.816407-25.070313-55.886719-55.882813-55.886719h-330.941406l39.96875 39.964844h54.816406l-131.605469 131.609375v-95.351563l21.839844 21.839844 28.257813-28.261719-69.082031-69.085937-69.085938 69.085937 28.261719 28.261719 19.839843-19.84375v329.511719c0 30.816406 25.070313 55.886719 55.886719 55.886719h330.507813l-19.839844 19.839843 28.257812 28.261719 69.085938-69.085938zm-158.292968 50.101563h-55.886719l243.015625-243.011719v55.882812zm-196.550782-84.644532 299.035157-299.035156h56.382812l-355.417969 355.417969zm383.679688-270.773437v55.882812l-299.535156 299.535157h-55.886719zm-195.554688-28.261719h54.386719l-242.511719 242.511719v-54.386719zm0 0"/>
</svg>
