<svg id="Capa_1" enable-background="new 0 0 512 512" height="512" viewBox="0 0 512 512" width="512"
     xmlns="http://www.w3.org/2000/svg">
    <path fill="#FE4A49" d="m251.33 79h148.67v54.99h-148.67z"/>
    <path fill="#FE4A49"
        d="m441.63 0h-231.93c-21.16 0-38.37 17.21-38.37 38.37v358.18c0 8.29 6.71 15 15 15h255.3c21.15 0 38.37-17.21 38.37-38.36v-334.82c0-21.16-17.22-38.37-38.37-38.37zm-160.7 373.99h-44.6c-8.29 0-15-6.71-15-15 0-8.28 6.71-15 15-15h44.6c8.28 0 15 6.72 15 15 0 8.29-6.72 15-15 15zm111.42-50h-156.02c-8.29 0-15-6.71-15-15 0-8.28 6.71-15 15-15h156.02c8.28 0 15 6.72 15 15 0 8.29-6.72 15-15 15zm-171.02-65c0-8.28 6.71-15 15-15h138.67c8.28 0 15 6.72 15 15 0 8.29-6.72 15-15 15h-138.67c-8.29 0-15-6.71-15-15zm193.67-35h-178.67c-8.29 0-15-6.71-15-15 0-8.28 6.71-15 15-15h178.67c8.28 0 15 6.72 15 15 0 8.29-6.72 15-15 15zm15-75c0 8.29-6.72 15-15 15h-178.67c-8.29 0-15-6.71-15-15v-84.99c0-8.28 6.71-15 15-15h178.67c8.28 0 15 6.72 15 15z"/>
    <path fill="#FE4A49"
        d="m141.33 396.55v-316.1h-71.01c-21.13 0-38.32 17.21-38.32 38.36v354.82c0 21.16 17.19 38.37 38.32 38.37h227.37l-131.55-75.24c-14.7-7.41-24.81-22.65-24.81-40.21z"/>
    <path fill="#FE4A49" d="m340.41 499.74c.16-.89.25-1.8.25-2.74v-55.45h-103.65z"/>
</svg>
